<svg width="32" height="33" viewBox="0 0 32 33" fill="none" xmlns="http://www.w3.org/2000/svg">
<path d="M28 18.1733C24.1873 19.7149 20.1126 20.505 16 20.5C11.756 20.5 7.70667 19.6733 4 18.1733M21.3333 8.49996V5.83329C21.3333 5.12605 21.0524 4.44777 20.5523 3.94767C20.0522 3.44758 19.3739 3.16663 18.6667 3.16663H13.3333C12.6261 3.16663 11.9478 3.44758 11.4477 3.94767C10.9476 4.44777 10.6667 5.12605 10.6667 5.83329V8.49996M16 16.5H16.0133M6.66667 27.1666H25.3333C26.0406 27.1666 26.7189 26.8857 27.219 26.3856C27.719 25.8855 28 25.2072 28 24.5V11.1666C28 10.4594 27.719 9.7811 27.219 9.28101C26.7189 8.78091 26.0406 8.49996 25.3333 8.49996H6.66667C5.95942 8.49996 5.28115 8.78091 4.78105 9.28101C4.28095 9.7811 4 10.4594 4 11.1666V24.5C4 25.2072 4.28095 25.8855 4.78105 26.3856C5.28115 26.8857 5.95942 27.1666 6.66667 27.1666Z" stroke="black" stroke-width="2" stroke-linecap="round" stroke-linejoin="round"/>
</svg>
