<svg width="32" height="32" viewBox="0 0 32 32" fill="none" xmlns="http://www.w3.org/2000/svg">
<path d="M10.6668 9.33333V20C10.6668 20.7072 10.9478 21.3855 11.4479 21.8856C11.948 22.3857 12.6263 22.6667 13.3335 22.6667H21.3335M10.6668 9.33333V6.66667C10.6668 5.95942 10.9478 5.28115 11.4479 4.78105C11.948 4.28095 12.6263 4 13.3335 4H19.4482C19.8018 4.00008 20.1408 4.1406 20.3908 4.39067L26.2762 10.276C26.5262 10.526 26.6668 10.8651 26.6668 11.2187V20C26.6668 20.7072 26.3859 21.3855 25.8858 21.8856C25.3857 22.3857 24.7074 22.6667 24.0002 22.6667H21.3335M10.6668 9.33333H8.00016C7.29292 9.33333 6.61464 9.61428 6.11454 10.1144C5.61445 10.6145 5.3335 11.2928 5.3335 12V25.3333C5.3335 26.0406 5.61445 26.7189 6.11454 27.219C6.61464 27.719 7.29292 28 8.00016 28H18.6668C19.3741 28 20.0524 27.719 20.5524 27.219C21.0525 26.7189 21.3335 26.0406 21.3335 25.3333V22.6667" stroke="url(#paint0_linear_650_943)" stroke-width="2" stroke-linecap="round" stroke-linejoin="round"/>
<defs>
<linearGradient id="paint0_linear_650_943" x1="7.00015" y1="4" x2="24.5002" y2="4" gradientUnits="userSpaceOnUse">
<stop stop-color="#3467AE"/>
<stop offset="1" stop-color="#0C4969"/>
</linearGradient>
</defs>
</svg>
