<svg width="144" height="28" viewBox="0 0 144 28" fill="none" xmlns="http://www.w3.org/2000/svg">
<path d="M12.5394 17.9234H6.19308L5.22894 20.8502H0L6.52399 2.94287H12.2543L18.7526 20.8502H13.4964L12.5394 17.9234ZM9.36625 8.32511L7.46377 14.1113H11.296L9.36625 8.32511Z" fill="#172B4D"/>
<path d="M20.3799 2.05981H25.3539V20.8554H20.3799V2.05981Z" fill="#172B4D"/>
<path d="M33.449 6.43453C34.2768 6.38497 35.1026 6.55915 35.8399 6.93876C36.5772 7.31837 37.1988 7.88942 37.6393 8.592V6.60357H42.6132V20.6902C42.6132 24.4966 40.5331 27.8532 35.4045 27.8532C30.9634 27.8532 28.2214 25.6197 27.8662 22.0927H32.7685C32.9719 23.0053 33.8343 23.5382 35.1036 23.5382C36.4989 23.5382 37.6422 22.905 37.6422 20.6959V18.868C37.2017 19.5702 36.5803 20.141 35.8433 20.5206C35.1063 20.9002 34.2808 21.0746 33.4533 21.0254C30.0781 21.0254 27.3877 18.2591 27.3877 13.7192C27.3877 9.17937 30.0724 6.43453 33.449 6.43453ZM35.0477 10.7738C34.6768 10.7745 34.3103 10.8541 33.9726 11.0073C33.6348 11.1605 33.3335 11.3837 33.0887 11.6623C32.8438 11.9409 32.6611 12.2684 32.5526 12.623C32.444 12.9777 32.4121 13.3514 32.459 13.7192C32.5246 14.2169 32.7322 14.6852 33.057 15.068C33.3818 15.4508 33.81 15.7318 34.2904 15.8775C34.7708 16.0232 35.283 16.0273 35.7657 15.8894C36.2484 15.7516 36.6811 15.4774 37.012 15.1C37.343 14.7225 37.5581 14.2577 37.6317 13.7611C37.7053 13.2645 37.6342 12.7573 37.4269 12.3C37.2197 11.8428 36.885 11.455 36.4631 11.1831C36.0411 10.9111 35.5497 10.7666 35.0477 10.7667V10.7738Z" fill="#172B4D"/>
<path d="M52.0772 21.0183C50.6426 20.9812 49.2507 20.5219 48.0756 19.6979C46.9006 18.8739 45.9945 17.7218 45.4707 16.3857C44.947 15.0495 44.8287 13.5886 45.1308 12.1856C45.4328 10.7826 46.1418 9.49975 47.169 8.4975C48.1962 7.49525 49.4961 6.81805 50.9061 6.5506C52.3161 6.28314 53.7737 6.4373 55.0966 6.99378C56.4194 7.55026 57.5489 8.48437 58.3438 9.67931C59.1386 10.8743 59.5635 12.277 59.5653 13.7122C59.6114 14.6995 59.4477 15.6853 59.0851 16.6048C58.7226 17.5243 58.1695 18.3566 57.462 19.0468C56.7546 19.7371 55.9089 20.2696 54.9808 20.6094C54.0527 20.9493 53.0631 21.0886 52.0772 21.0183ZM52.0772 16.7034C53.3465 16.7034 54.5126 15.7651 54.5126 13.7093C54.5126 11.6779 53.3666 10.7395 52.1102 10.7395C50.8538 10.7395 49.7235 11.6779 49.7235 13.7093C49.7163 15.7651 50.7822 16.7034 52.0772 16.7034Z" fill="#172B4D"/>
<path d="M74.4603 6.73425L67.0252 16.8096H74.4603V20.8567H61.4409V17.0661L68.7987 6.96632H61.4409V2.95508H74.4603V6.73425Z" fill="#172B4D"/>
<path d="M83.5684 21.0187C81.6509 20.9919 79.821 20.2113 78.4744 18.8458C77.1279 17.4803 76.373 15.6396 76.373 13.7219C76.373 11.8041 77.1279 9.96347 78.4744 8.59796C79.821 7.23245 81.6509 6.45184 83.5684 6.42497C84.5243 6.35914 85.4831 6.49808 86.381 6.83247C87.2788 7.16686 88.0949 7.68901 88.7748 8.36404C89.4548 9.03907 89.9828 9.85143 90.3236 10.7468C90.6645 11.6423 90.8103 12.6001 90.7514 13.5564C90.7515 13.9463 90.7261 14.3359 90.6755 14.7225H81.2591C81.3608 16.3743 82.249 17.0319 83.3622 17.0319C83.7363 17.0457 84.1058 16.9465 84.4227 16.7472C84.7396 16.5479 84.9891 16.2577 85.1386 15.9144H90.4391C90.0607 17.4284 89.1692 18.7644 87.9165 19.6951C86.6638 20.6257 85.1272 21.0935 83.5684 21.0187ZM81.2849 12.3086H85.6715C85.6729 12.0362 85.6172 11.7665 85.5081 11.5169C85.3989 11.2673 85.2387 11.0434 85.0377 10.8594C84.8368 10.6755 84.5996 10.5357 84.3414 10.449C84.0831 10.3623 83.8096 10.3306 83.5383 10.356C82.9826 10.3271 82.4374 10.515 82.0174 10.8799C81.5973 11.2449 81.3352 11.7586 81.2863 12.3129L81.2849 12.3086Z" fill="#172B4D"/>
<path d="M102.48 13.2031C102.508 12.8757 102.468 12.5461 102.362 12.2352C102.256 11.9242 102.086 11.6387 101.864 11.3967C101.642 11.1547 101.372 10.9615 101.071 10.8293C100.77 10.6972 100.445 10.6289 100.117 10.6289C99.7882 10.6289 99.4631 10.6972 99.1623 10.8293C98.8615 10.9615 98.5915 11.1547 98.3693 11.3967C98.147 11.6387 97.9775 11.9242 97.8714 12.2352C97.7653 12.5461 97.725 12.8757 97.7529 13.2031V20.8502H92.7847V6.60313H97.7586V8.64027C98.2488 7.95175 98.9013 7.39477 99.6582 7.01868C100.415 6.6426 101.253 6.45902 102.098 6.48422C105.402 6.48422 107.453 8.81935 107.453 12.5498V20.8588H102.479L102.48 13.2031Z" fill="#172B4D"/>
<path d="M109.788 2.74503C109.87 2.03208 110.212 1.37429 110.747 0.896819C111.283 0.419347 111.976 0.155518 112.694 0.155518C113.411 0.155518 114.104 0.419347 114.64 0.896819C115.176 1.37429 115.517 2.03208 115.6 2.74503C115.504 3.44823 115.157 4.09306 114.623 4.55997C114.089 5.02687 113.403 5.28417 112.694 5.28417C111.984 5.28417 111.298 5.02687 110.764 4.55997C110.23 4.09306 109.883 3.44823 109.788 2.74503ZM110.193 6.603H115.168V20.8501H110.193V6.603Z" fill="#172B4D"/>
<path d="M118.796 10.7411H117.045V6.60375H118.796V3.14978H123.797V6.60375H126.384V10.7411H123.797V15.513C123.797 16.2737 124.125 16.6032 124.963 16.6032H126.409V20.8494H124.253C121.101 20.8494 118.796 19.53 118.796 15.4428V10.7411Z" fill="#172B4D"/>
<path d="M128.695 2.05981H133.671V8.63254C134.167 7.938 134.827 7.37745 135.593 7.00116C136.36 6.62486 137.207 6.44458 138.06 6.47648C141.309 6.47648 143.361 8.8116 143.361 12.5421V20.8554H138.387V13.2082C138.42 12.8781 138.384 12.5447 138.281 12.2294C138.177 11.9141 138.009 11.624 137.787 11.3778C137.564 11.1316 137.293 10.9348 136.99 10.8001C136.686 10.6654 136.358 10.5958 136.026 10.5958C135.695 10.5958 135.366 10.6654 135.063 10.8001C134.76 10.9348 134.488 11.1316 134.266 11.3778C134.044 11.624 133.875 11.9141 133.772 12.2294C133.669 12.5447 133.633 12.8781 133.666 13.2082V20.8554H128.691L128.695 2.05981Z" fill="#172B4D"/>
</svg>
