<svg width="45" height="40" viewBox="0 0 45 40" fill="none" xmlns="http://www.w3.org/2000/svg">
<path d="M12.099 40.0045H2.88033C2.37714 40.0039 1.88286 39.8716 1.44661 39.6208C1.01036 39.37 0.647318 39.0095 0.393557 38.575C0.139797 38.1404 0.00414993 37.6471 9.37188e-05 37.1439C-0.00396249 36.6407 0.123713 36.1453 0.370436 35.7067L19.5915 1.47071C19.7212 1.23529 19.8826 1.01885 20.0714 0.82748C20.2525 0.647218 20.4573 0.492504 20.6802 0.367619C21.1141 0.126523 21.6022 0 22.0985 0C22.5948 0 23.0829 0.126523 23.5168 0.367619C23.7392 0.492538 23.9436 0.647255 24.1242 0.82748C24.3198 1.01737 24.4876 1.23392 24.6227 1.47071L43.8466 35.7024C44.0935 36.1413 44.2212 36.6371 44.2169 37.1407C44.2127 37.6442 44.0767 38.1379 43.8224 38.5725C43.5681 39.0072 43.2045 39.3677 42.7676 39.6181C42.3308 39.8686 41.836 40.0003 41.3324 40.0002H32.1209C31.1632 38.1821 29.7211 36.6646 27.9542 35.6155C26.1873 34.5665 24.1646 34.0268 22.11 34.0564C20.0556 34.0267 18.0332 34.566 16.2664 35.6145C14.4995 36.663 13.0572 38.1799 12.099 39.9973V40.0045Z" fill="url(#paint0_linear_665_239)"/>
<path opacity="0.27" d="M19.6758 26.3823L22.2716 23.1146H23.6197L21.223 26.3809L19.6758 26.3823Z" fill="url(#paint1_linear_665_239)"/>
<path opacity="0.22" d="M21.7315 18.261H25.7872L24.6411 19.6936L20.6929 19.5962L21.7315 18.261Z" fill="url(#paint2_linear_665_239)"/>
<path d="M21.7404 18.272L17.2564 23.9579C17.0387 24.1889 16.9175 24.4943 16.9175 24.8117C16.9175 25.1291 17.0387 25.4346 17.2564 25.6656C17.514 25.9546 17.8382 26.1765 18.2009 26.312C18.5636 26.4476 18.9539 26.4927 19.338 26.4434L22.5814 22.4437L25.8018 18.272H21.7404Z" fill="white"/>
<path d="M22.2779 23.1367H25.9682C25.9682 23.1367 27.0498 23.4003 27.3306 24.0493C27.4919 24.4817 27.4919 24.9578 27.3306 25.3902C27.3306 25.3902 26.9624 26.3844 26.0986 26.3844H19.6992L22.2779 23.1367Z" fill="white"/>
<path d="M18.7175 14.9989H25.1169C25.5109 14.9989 25.8888 15.1554 26.1674 15.434C26.446 15.7126 26.6025 16.0905 26.6025 16.4845C26.6025 16.6796 26.5641 16.8728 26.4894 17.053C26.4148 17.2333 26.3053 17.397 26.1674 17.535C26.0294 17.6729 25.8657 17.7823 25.6854 17.857C25.5052 17.9317 25.312 17.9701 25.1169 17.9701H18.7175C18.5224 17.9701 18.3292 17.9317 18.149 17.857C17.9688 17.7823 17.805 17.6729 17.667 17.535C17.5291 17.397 17.4197 17.2333 17.345 17.053C17.2704 16.8728 17.2319 16.6796 17.2319 16.4845C17.2319 16.0905 17.3884 15.7126 17.667 15.434C17.9457 15.1554 18.3235 14.9989 18.7175 14.9989Z" fill="white"/>
<defs>
<linearGradient id="paint0_linear_665_239" x1="-65.5739" y1="87.4497" x2="-65.5739" y2="87.3297" gradientUnits="userSpaceOnUse">
<stop stop-color="#172B4D"/>
<stop offset="1" stop-color="#26457A"/>
</linearGradient>
<linearGradient id="paint1_linear_665_239" x1="-63.8092" y1="85.7045" x2="-63.8279" y2="85.7309" gradientUnits="userSpaceOnUse">
<stop stop-color="white"/>
<stop offset="1" stop-color="#A7ACAD"/>
</linearGradient>
<linearGradient id="paint2_linear_665_239" x1="-64.2849" y1="83.5139" x2="-64.2849" y2="83.3936" gradientUnits="userSpaceOnUse">
<stop stop-color="#A7ACAD"/>
<stop offset="1" stop-color="white"/>
</linearGradient>
</defs>
</svg>
