<svg width="32" height="32" viewBox="0 0 32 32" fill="none" xmlns="http://www.w3.org/2000/svg">
<path fill-rule="evenodd" clip-rule="evenodd" d="M5 7.6C5 7.17565 5.16857 6.76869 5.46863 6.46863C5.76869 6.16857 6.17565 6 6.6 6H25.8C26.2243 6 26.6313 6.16857 26.9314 6.46863C27.2314 6.76869 27.4 7.17565 27.4 7.6C27.4 8.02435 27.2314 8.43131 26.9314 8.73137C26.6313 9.03143 26.2243 9.2 25.8 9.2H6.6C6.17565 9.2 5.76869 9.03143 5.46863 8.73137C5.16857 8.43131 5 8.02435 5 7.6ZM5 15.6C5 15.1757 5.16857 14.7687 5.46863 14.4686C5.76869 14.1686 6.17565 14 6.6 14H25.8C26.2243 14 26.6313 14.1686 26.9314 14.4686C27.2314 14.7687 27.4 15.1757 27.4 15.6C27.4 16.0243 27.2314 16.4313 26.9314 16.7314C26.6313 17.0314 26.2243 17.2 25.8 17.2H6.6C6.17565 17.2 5.76869 17.0314 5.46863 16.7314C5.16857 16.4313 5 16.0243 5 15.6ZM5 23.6C5 23.1757 5.16857 22.7687 5.46863 22.4686C5.76869 22.1686 6.17565 22 6.6 22H25.8C26.2243 22 26.6313 22.1686 26.9314 22.4686C27.2314 22.7687 27.4 23.1757 27.4 23.6C27.4 24.0243 27.2314 24.4313 26.9314 24.7314C26.6313 25.0314 26.2243 25.2 25.8 25.2H6.6C6.17565 25.2 5.76869 25.0314 5.46863 24.7314C5.16857 24.4313 5 24.0243 5 23.6Z" fill="black"/>
</svg>
