<svg width="32" height="32" viewBox="0 0 32 32" fill="none" xmlns="http://www.w3.org/2000/svg">
<path d="M19.6695 14.8907L15.4068 12.0481C15.2058 11.914 14.9722 11.837 14.7309 11.8254C14.4895 11.8138 14.2496 11.868 14.0366 11.9822C13.8237 12.0964 13.6458 12.2663 13.522 12.4738C13.3981 12.6812 13.333 12.9184 13.3335 13.1601V18.8441C13.3335 19.0854 13.399 19.3223 13.523 19.5294C13.647 19.7365 13.825 19.906 14.0378 20.0199C14.2507 20.1338 14.4904 20.1877 14.7315 20.176C14.9726 20.1643 15.206 20.0874 15.4068 19.9534L19.6695 17.1107C19.8521 16.989 20.0018 16.824 20.1054 16.6305C20.2089 16.437 20.2631 16.2209 20.2631 16.0014C20.2631 15.7819 20.2089 15.5658 20.1054 15.3723C20.0018 15.1788 19.8521 15.0125 19.6695 14.8907Z" stroke="url(#paint0_linear_650_909)" stroke-width="2" stroke-linecap="round" stroke-linejoin="round"/>
<path d="M28 16C28 17.5759 27.6896 19.1363 27.0866 20.5922C26.4835 22.0481 25.5996 23.371 24.4853 24.4853C23.371 25.5996 22.0481 26.4835 20.5922 27.0866C19.1363 27.6896 17.5759 28 16 28C14.4241 28 12.8637 27.6896 11.4078 27.0866C9.95189 26.4835 8.62902 25.5996 7.51472 24.4853C6.40042 23.371 5.5165 22.0481 4.91345 20.5922C4.31039 19.1363 4 17.5759 4 16C4 12.8174 5.26428 9.76516 7.51472 7.51472C9.76516 5.26428 12.8174 4 16 4C19.1826 4 22.2348 5.26428 24.4853 7.51472C26.7357 9.76516 28 12.8174 28 16Z" stroke="url(#paint1_linear_650_909)" stroke-width="2" stroke-linecap="round" stroke-linejoin="round"/>
<defs>
<linearGradient id="paint0_linear_650_909" x1="13.8749" y1="11.8239" x2="19.5593" y2="11.8239" gradientUnits="userSpaceOnUse">
<stop stop-color="#3467AE"/>
<stop offset="1" stop-color="#0C4969"/>
</linearGradient>
<linearGradient id="paint1_linear_650_909" x1="5.87499" y1="4" x2="25.5625" y2="4" gradientUnits="userSpaceOnUse">
<stop stop-color="#3467AE"/>
<stop offset="1" stop-color="#0C4969"/>
</linearGradient>
</defs>
</svg>
